<svg width="20" height="20" viewBox="0 0 20 20" fill="none" xmlns="http://www.w3.org/2000/svg">
<g id="003-credit-card" clip-path="url(#clip0_1628_14518)">
<g id="Group">
<path id="Vector" d="M19.9609 8.86714C19.9609 8.46811 19.8271 8.09991 19.6022 7.80456L17.1826 1.15671C16.8511 0.245889 15.8404 -0.2254 14.9296 0.106123L1.71516 4.91577C0.804336 5.24729 0.333047 6.25796 0.66457 7.16878L0.765195 7.44523C0.325586 7.76507 0.0390625 8.28315 0.0390625 8.86718L0.0391016 18.2422C0.0391016 19.2114 0.827656 20 1.79691 20L18.2032 20C19.1724 20 19.961 19.2114 19.961 18.2421L19.9609 8.86714ZM18.1021 7.10933H13.9627L17.6179 5.77894L18.1021 7.10933ZM16.8162 3.57655L17.217 4.67772L10.5363 7.10937H7.11L16.8162 3.57655ZM2.11594 6.01698L15.3304 1.20729C15.634 1.09679 15.9709 1.2539 16.0814 1.55749L16.4155 2.47534L3.68363 7.10937H1.89L1.76574 6.76796C1.65523 6.46437 1.81234 6.12749 2.11594 6.01698ZM18.2032 18.8281L1.79691 18.8281C1.47383 18.8281 1.21098 18.5653 1.21098 18.2422L1.21094 8.86718C1.21094 8.54409 1.47379 8.28124 1.79688 8.28124L18.2031 8.2812C18.5262 8.2812 18.7891 8.54405 18.7891 8.86714L18.7891 18.2421C18.7891 18.5653 18.5263 18.8281 18.2032 18.8281Z" fill="white"/>
<path id="Vector_2" d="M2.96875 14.1406C2.64516 14.1406 2.38281 14.403 2.38281 14.7266C2.38281 15.0502 2.64516 15.3125 2.96875 15.3125H4.53125C4.85484 15.3125 5.11719 15.0502 5.11719 14.7266C5.11719 14.403 4.85484 14.1406 4.53125 14.1406H2.96875Z" fill="white"/>
<path id="Vector_3" d="M6.875 16.4844H2.96875C2.64516 16.4844 2.38281 16.7467 2.38281 17.0703C2.38281 17.3939 2.64516 17.6562 2.96875 17.6562H6.875C7.19859 17.6562 7.46094 17.3939 7.46094 17.0703C7.46094 16.7467 7.19859 16.4844 6.875 16.4844Z" fill="white"/>
<path id="Vector_4" d="M8.4375 14.1406H6.875C6.55141 14.1406 6.28906 14.403 6.28906 14.7266C6.28906 15.0502 6.55141 15.3125 6.875 15.3125H8.4375C8.76109 15.3125 9.02344 15.0502 9.02344 14.7266C9.02344 14.403 8.76109 14.1406 8.4375 14.1406Z" fill="white"/>
<path id="Vector_5" d="M12.3438 14.1406H10.7812C10.4577 14.1406 10.1953 14.403 10.1953 14.7266C10.1953 15.0502 10.4577 15.3125 10.7812 15.3125H12.3438C12.6673 15.3125 12.9297 15.0502 12.9297 14.7266C12.9297 14.403 12.6673 14.1406 12.3438 14.1406Z" fill="white"/>
<path id="Vector_6" d="M16.25 14.1406H14.6875C14.3639 14.1406 14.1016 14.403 14.1016 14.7266C14.1016 15.0502 14.3639 15.3125 14.6875 15.3125H16.25C16.5736 15.3125 16.8359 15.0502 16.8359 14.7266C16.8359 14.403 16.5736 14.1406 16.25 14.1406Z" fill="white"/>
<path id="Vector_7" d="M2.96875 12.9688H6.875C7.19859 12.9688 7.46094 12.7064 7.46094 12.3828V10.0391C7.46094 9.71547 7.19859 9.45312 6.875 9.45312H2.96875C2.64516 9.45312 2.38281 9.71547 2.38281 10.0391V12.3828C2.38281 12.7064 2.64516 12.9688 2.96875 12.9688ZM3.55469 10.625H6.28906V11.7969H3.55469V10.625Z" fill="white"/>
</g>
</g>
<defs>
<clipPath id="clip0_1628_14518">
<rect width="20" height="20" fill="white"/>
</clipPath>
</defs>
</svg>
