<svg width="20" height="20" viewBox="0 0 20 20" fill="none" xmlns="http://www.w3.org/2000/svg">
<g id="004-credit-card-1">
<path id="Vector" d="M18.7514 5.00426H17.5452V3.28092C17.5449 2.94136 17.4133 2.61578 17.1792 2.37563C16.9451 2.13549 16.6277 2.0004 16.2966 2H1.249C0.917869 2.00041 0.600411 2.13549 0.366263 2.37562C0.132115 2.61575 0.000396609 2.94132 0 3.28092V12.715C0.000425662 13.0546 0.132159 13.3801 0.366306 13.6202C0.600453 13.8603 0.917895 13.9954 1.249 13.9957H2.4548V15.7191C2.45519 16.0587 2.58689 16.3842 2.82103 16.6244C3.05516 16.8645 3.37261 16.9996 3.70373 17H18.7514C19.0825 16.9996 19.3999 16.8645 19.634 16.6244C19.8681 16.3842 19.9997 16.0586 20 15.7191V6.28499C19.9997 5.94547 19.868 5.61995 19.6339 5.37985C19.3999 5.13975 19.0825 5.00468 18.7514 5.00426ZM2.4548 6.28499V12.8711H1.249C1.20863 12.8711 1.16992 12.8546 1.14135 12.8254C1.11278 12.7961 1.09669 12.7564 1.09658 12.715V3.28092C1.09665 3.23948 1.11273 3.19976 1.1413 3.17046C1.16987 3.14116 1.2086 3.12467 1.249 3.1246H16.2966C16.337 3.12469 16.3757 3.1412 16.4042 3.17051C16.4327 3.19981 16.4487 3.23952 16.4487 3.28092V5.00426H3.70373C3.37264 5.00467 3.05521 5.13973 2.82108 5.37982C2.58695 5.61991 2.45523 5.94543 2.4548 6.28499ZM18.9035 15.7191C18.9035 15.7605 18.8875 15.8002 18.859 15.8295C18.8305 15.8588 18.7918 15.8753 18.7514 15.8754H3.70373C3.66333 15.8753 3.6246 15.8588 3.59603 15.8295C3.56746 15.8002 3.55138 15.7605 3.55131 15.7191V10.7685H18.9034L18.9035 15.7191ZM18.9035 8.52246H3.55138V6.28499C3.55149 6.24358 3.56759 6.20391 3.59615 6.17464C3.62472 6.14538 3.66343 6.12892 3.70381 6.12886H18.7514C18.7918 6.12893 18.8304 6.14541 18.8589 6.17468C18.8875 6.20395 18.9035 6.24362 18.9035 6.28499V8.52246ZM5.36805 13.6209H11.3656C11.511 13.6209 11.6504 13.5616 11.7533 13.4562C11.8561 13.3507 11.9139 13.2077 11.9139 13.0586C11.9139 12.9094 11.8561 12.7664 11.7533 12.661C11.6504 12.5555 11.511 12.4963 11.3656 12.4963H5.36794C5.22252 12.4963 5.08306 12.5555 4.98024 12.661C4.87742 12.7664 4.81965 12.9094 4.81965 13.0586C4.81965 13.2077 4.87742 13.3507 4.98024 13.4562C5.08306 13.5616 5.22263 13.6209 5.36805 13.6209ZM13.9579 13.6209H14.8228C14.9682 13.6209 15.1077 13.5616 15.2105 13.4562C15.3134 13.3507 15.3711 13.2077 15.3711 13.0586C15.3711 12.9094 15.3134 12.7664 15.2105 12.661C15.1077 12.5555 14.9682 12.4963 14.8228 12.4963H13.9578C13.8124 12.4963 13.6729 12.5555 13.5701 12.661C13.4673 12.7664 13.4095 12.9094 13.4095 13.0586C13.4095 13.2077 13.4673 13.3507 13.5701 13.4562C13.6729 13.5616 13.8125 13.6209 13.9579 13.6209ZM16.7297 13.6209H17.3626C17.508 13.6209 17.6475 13.5616 17.7503 13.4562C17.8531 13.3507 17.9109 13.2077 17.9109 13.0586C17.9109 12.9094 17.8531 12.7664 17.7503 12.661C17.6475 12.5555 17.508 12.4963 17.3626 12.4963H16.7296C16.5842 12.4963 16.4447 12.5555 16.3419 12.661C16.2391 12.7664 16.1813 12.9094 16.1813 13.0586C16.1813 13.2077 16.2391 13.3507 16.3419 13.4562C16.4447 13.5616 16.5843 13.6209 16.7297 13.6209Z" fill="white"/>
</g>
</svg>
