<svg width="20" height="20" viewBox="0 0 20 20" fill="none" xmlns="http://www.w3.org/2000/svg">
<g id="012-alert" clip-path="url(#clip0_1628_14172)">
<g id="Group">
<path id="Vector" d="M11.5409 3.2934C11.227 2.72445 10.6517 2.38477 10.0018 2.38477C9.35198 2.38477 8.77663 2.72445 8.46272 3.29344L4.19768 11.0238C3.89413 11.574 3.90362 12.2255 4.22303 12.7666C4.54253 13.3077 5.10839 13.6308 5.73674 13.6308H14.2669C14.8952 13.6308 15.4611 13.3077 15.7806 12.7666C16.1 12.2255 16.1095 11.574 15.8059 11.0238L11.5409 3.2934ZM14.7715 12.1709C14.7203 12.2575 14.5688 12.4589 14.2669 12.4589H5.73674C5.43483 12.4589 5.28335 12.2575 5.23217 12.1709C5.18104 12.0843 5.07788 11.8543 5.22374 11.5899L9.48878 3.85953C9.6396 3.58617 9.8978 3.55664 10.0018 3.55664C10.1058 3.55664 10.364 3.58617 10.5149 3.85953L14.7799 11.5899C14.9258 11.8543 14.8226 12.0843 14.7715 12.1709Z" fill="white"/>
<path id="Vector_2" d="M10 5.62305C9.67641 5.62305 9.41406 5.88539 9.41406 6.20898V8.74805C9.41406 9.07164 9.67641 9.33398 10 9.33398C10.3236 9.33398 10.5859 9.07164 10.5859 8.74805V6.20898C10.5859 5.88539 10.3236 5.62305 10 5.62305Z" fill="white"/>
<path id="Vector_3" d="M17.8516 0H2.14844C0.963789 0 0 0.963789 0 2.14844V13.8672C0 15.0518 0.963789 16.0156 2.14844 16.0156H7.06742C7.03941 16.3823 6.80809 16.7004 6.46211 16.8388C5.64512 17.1656 5.11719 17.9453 5.11719 18.8252V19.4141C5.11719 19.7377 5.37953 20 5.70312 20H14.2969C14.6205 20 14.8828 19.7377 14.8828 19.4141V18.8252C14.8828 17.9453 14.3549 17.1656 13.5379 16.8388C13.1919 16.7004 12.9606 16.3823 12.9326 16.0156H17.8516C19.0362 16.0156 20 15.0518 20 13.8672V2.14844C20 0.963789 19.0362 0 17.8516 0ZM13.1027 17.9268C13.4722 18.0746 13.7109 18.4273 13.7109 18.8252V18.8281H6.28906V18.8252C6.28906 18.4273 6.52781 18.0746 6.89727 17.9268C7.6909 17.6094 8.2116 16.8645 8.24078 16.0156H11.7592C11.7884 16.8645 12.3091 17.6094 13.1027 17.9268ZM18.8281 13.8672C18.8281 14.4057 18.39 14.8438 17.8516 14.8438H2.14844C1.60996 14.8438 1.17188 14.4057 1.17188 13.8672V2.14844C1.17188 1.60996 1.60996 1.17188 2.14844 1.17188H17.8516C18.39 1.17188 18.8281 1.60996 18.8281 2.14844V13.8672Z" fill="white"/>
<path id="Vector_4" d="M10 10.1152C9.67641 10.1152 9.41406 10.3776 9.41406 10.7012C9.41406 11.0248 9.67641 11.2871 10 11.2871C10.3236 11.2871 10.5859 11.0248 10.5859 10.7012C10.5859 10.3776 10.3236 10.1152 10 10.1152Z" fill="white"/>
</g>
</g>
<defs>
<clipPath id="clip0_1628_14172">
<rect width="20" height="20" fill="white"/>
</clipPath>
</defs>
</svg>
