<svg width="20" height="20" viewBox="0 0 20 20" fill="none" xmlns="http://www.w3.org/2000/svg">
<g id="002-certification">
<path id="Vector" d="M19.3023 18.1641H0.697674C0.51264 18.1641 0.335183 18.0905 0.204344 17.9596C0.0735048 17.8287 0 17.6511 0 17.466V2.5731C0 2.38795 0.0735048 2.21039 0.204344 2.07947C0.335183 1.94855 0.51264 1.875 0.697674 1.875H19.3023C19.4874 1.875 19.6648 1.94855 19.7957 2.07947C19.9265 2.21039 20 2.38795 20 2.5731V17.466C20 17.6511 19.9265 17.8287 19.7957 17.9596C19.6648 18.0905 19.4874 18.1641 19.3023 18.1641ZM1.39535 16.7679H18.6047V3.27121H1.39535V16.7679Z" fill="white"/>
<path id="Vector_2" d="M14.6623 15.3906H5.3377C5.15222 15.3906 4.97434 15.3168 4.84319 15.1854C4.71204 15.054 4.63836 14.8759 4.63836 14.69C4.63786 14.3805 4.5149 14.0838 4.29642 13.865C4.07794 13.6461 3.78176 13.5229 3.47278 13.5224C3.2873 13.5224 3.10942 13.4486 2.97827 13.3172C2.84712 13.1858 2.77344 13.0076 2.77344 12.8218V7.21722C2.77344 7.03142 2.84712 6.85322 2.97827 6.72184C3.10942 6.59045 3.2873 6.51664 3.47278 6.51664C3.78176 6.51615 4.07794 6.39297 4.29642 6.17411C4.5149 5.95524 4.63786 5.65854 4.63836 5.34901C4.63836 5.16321 4.71204 4.98502 4.84319 4.85363C4.97434 4.72225 5.15222 4.64844 5.3377 4.64844H14.6623C14.8478 4.64844 15.0257 4.72225 15.1568 4.85363C15.288 4.98502 15.3616 5.16321 15.3616 5.34901C15.3621 5.65854 15.4851 5.95524 15.7036 6.17411C15.9221 6.39297 16.2182 6.51615 16.5272 6.51664C16.7127 6.51664 16.8906 6.59045 17.0217 6.72184C17.1529 6.85322 17.2266 7.03142 17.2266 7.21722V12.8218C17.2266 13.0076 17.1529 13.1858 17.0217 13.3172C16.8906 13.4486 16.7127 13.5224 16.5272 13.5224C16.2182 13.5229 15.9221 13.6461 15.7036 13.865C15.4851 14.0838 15.3621 14.3805 15.3616 14.69C15.3616 14.8759 15.288 15.054 15.1568 15.1854C15.0257 15.3168 14.8478 15.3906 14.6623 15.3906ZM5.94007 13.9895H14.0599C14.1796 13.5668 14.4052 13.1819 14.7153 12.8712C15.0254 12.5606 15.4097 12.3346 15.8316 12.2147V7.82065C15.4097 7.70077 15.0254 7.47475 14.7153 7.1641C14.4052 6.85346 14.1796 6.4685 14.0599 6.04586H5.94007C5.82039 6.4685 5.59478 6.85346 5.28468 7.1641C4.97458 7.47475 4.5903 7.70077 4.1684 7.82065V12.2184C4.58986 12.338 4.97385 12.5634 5.28392 12.8734C5.59398 13.1833 5.81984 13.5675 5.94007 13.9895Z" fill="white"/>
<path id="Vector_3" d="M12.8164 8.86719H7.22266C7.03721 8.86719 6.85936 8.79311 6.72823 8.66125C6.59711 8.52939 6.52344 8.35054 6.52344 8.16406C6.52344 7.97758 6.59711 7.79874 6.72823 7.66688C6.85936 7.53502 7.03721 7.46094 7.22266 7.46094H12.8164C13.0019 7.46094 13.1797 7.53502 13.3108 7.66688C13.442 7.79874 13.5156 7.97758 13.5156 8.16406C13.5156 8.35054 13.442 8.52939 13.3108 8.66125C13.1797 8.79311 13.0019 8.86719 12.8164 8.86719Z" fill="white"/>
<path id="Vector_4" d="M14.1853 11.6406H5.81473C5.62973 11.6406 5.45231 11.5665 5.32149 11.4347C5.19068 11.3028 5.11719 11.124 5.11719 10.9375C5.11719 10.751 5.19068 10.5722 5.32149 10.4403C5.45231 10.3085 5.62973 10.2344 5.81473 10.2344H14.1853C14.3703 10.2344 14.5477 10.3085 14.6785 10.4403C14.8093 10.5722 14.8828 10.751 14.8828 10.9375C14.8828 11.124 14.8093 11.3028 14.6785 11.4347C14.5477 11.5665 14.3703 11.6406 14.1853 11.6406Z" fill="white"/>
</g>
</svg>
