<svg width="20" height="20" viewBox="0 0 20 20" fill="none" xmlns="http://www.w3.org/2000/svg">
<g id="008-call-log" clip-path="url(#clip0_1628_14347)">
<g id="Layer_1">
<g id="Group">
<path id="Vector" d="M12.5667 11.7247C12.3466 11.7247 12.1442 11.8061 11.9968 11.9535L9.95908 13.9935C7.41711 13.2535 6.40255 11.1912 6.06958 10.2766L8.27223 8.07122C8.53388 7.80925 8.57022 7.44335 8.38012 6.98377C7.94222 5.92543 5.09454 1.91992 3.48628 1.91992C3.19874 1.91992 2.93232 2.02817 2.73563 2.2251L0.59158 4.3718C-0.764805 5.73009 0.595668 11.9537 4.32323 15.6856C7.28424 18.6503 11.303 20.0004 13.7839 20.0004C14.6719 20.0002 15.3038 19.8187 15.6617 19.4601L17.8058 17.3136C17.9598 17.1594 18.2861 16.7242 17.9925 16.0145C17.4006 14.5843 13.5978 11.7247 12.5667 11.7247ZM13.7839 18.5889C11.9487 18.636 8.17889 17.5501 5.32008 14.6876C1.7322 11.0952 1.16643 6.02958 1.59865 5.35942L3.58053 3.37508C3.88919 3.53404 6.07799 5.28756 6.99716 7.35194L4.89217 9.4593C4.62916 9.72286 4.53445 10.1079 4.64529 10.4642C4.93487 11.3938 6.1652 14.4988 9.83939 15.423C9.9182 15.4428 10.223 15.7197 10.7881 15.1592L12.7248 13.2203C13.6921 13.6877 16.2595 15.6556 16.6572 16.467C16.6574 16.467 14.8223 18.5623 13.7839 18.5889Z" fill="white"/>
<path id="Vector_2" d="M18.0873 0H10.6165C9.60603 0 8.82812 0.81138 8.82812 1.82288V4.92786C8.82812 5.31763 9.12021 5.6335 9.5095 5.6335C9.89879 5.6335 10.1909 5.31763 10.1909 4.92786V1.82288C10.1909 1.58956 10.3832 1.36443 10.6165 1.36443H18.0873C18.3205 1.36443 18.5945 1.58956 18.5945 1.82288V13.9604C18.5945 14.3501 18.8865 14.666 19.2758 14.666C19.6651 14.666 19.9572 14.3501 19.9572 13.9604V1.82288C19.9572 0.81138 19.0978 0 18.0873 0Z" fill="white"/>
<path id="Vector_3" d="M12.4548 4.32035H16.1196C16.5089 4.32035 16.8244 3.9142 16.8244 3.52443C16.8244 3.13466 16.5089 2.72852 16.1196 2.72852H12.4548C12.0655 2.72852 11.75 3.13466 11.75 3.52443C11.75 3.9142 12.0655 4.32035 12.4548 4.32035Z" fill="white"/>
<path id="Vector_4" d="M12.4548 7.27654H16.1196C16.5089 7.27654 16.8244 6.98409 16.8244 6.59432C16.8244 6.20455 16.5089 5.91211 16.1196 5.91211H12.4548C12.0655 5.91211 11.75 6.20455 11.75 6.59432C11.75 6.98409 12.0655 7.27654 12.4548 7.27654Z" fill="white"/>
<path id="Vector_5" d="M12.4548 10.4601H16.1196C16.5089 10.4601 16.8244 10.1677 16.8244 9.77792C16.8244 9.38815 16.5089 9.0957 16.1196 9.0957H12.4548C12.0655 9.0957 11.75 9.38815 11.75 9.77792C11.75 10.1677 12.0655 10.4601 12.4548 10.4601Z" fill="white"/>
</g>
</g>
</g>
<defs>
<clipPath id="clip0_1628_14347">
<rect width="20" height="20" fill="white"/>
</clipPath>
</defs>
</svg>
