<svg width="20" height="20" viewBox="0 0 20 20" fill="none" xmlns="http://www.w3.org/2000/svg">
<g id="009-change" clip-path="url(#clip0_1628_14326)">
<g id="Group">
<path id="Vector" d="M1.25 10C1.25 5.16751 5.16751 1.25 10 1.25C12.5404 1.25 14.8281 2.33221 16.4273 4.0625H14.9131C14.5679 4.0625 14.2881 4.34233 14.2881 4.6875C14.2881 5.03267 14.5679 5.3125 14.9131 5.3125H17.7256C18.0708 5.3125 18.3506 5.03267 18.3506 4.6875V1.875C18.3506 1.52982 18.0708 1.25 17.7256 1.25C17.3804 1.25 17.1006 1.52982 17.1006 1.875V2.95862C15.2892 1.1322 12.7769 0 10 0C4.47715 0 0 4.47715 0 10C0 15.5229 4.47715 20 10 20C15.5229 20 20 15.5229 20 10C20 9.65481 19.7202 9.375 19.375 9.375C19.0298 9.375 18.75 9.65481 18.75 10C18.75 14.8325 14.8325 18.75 10 18.75C5.16751 18.75 1.25 14.8325 1.25 10Z" fill="white"/>
<path id="Vector_2" d="M5 6.875C3.96447 6.875 3.125 7.71444 3.125 8.75V11.25C3.125 12.2856 3.96447 13.125 5 13.125H10C10.3452 13.125 10.625 12.8452 10.625 12.5C10.625 12.1548 10.3452 11.875 10 11.875H5C4.65482 11.875 4.375 11.5952 4.375 11.25V8.75C4.375 8.40481 4.65482 8.125 5 8.125H15C15.3452 8.125 15.625 8.40481 15.625 8.75V12.5C15.625 12.8452 15.9048 13.125 16.25 13.125C16.5952 13.125 16.875 12.8452 16.875 12.5V8.75C16.875 7.71444 16.0356 6.875 15 6.875H5Z" fill="white"/>
<path id="Vector_3" d="M7.5 10C7.5 10.6904 6.94037 11.25 6.25 11.25C5.55964 11.25 5 10.6904 5 10C5 9.30963 5.55964 8.75 6.25 8.75C6.94037 8.75 7.5 9.30963 7.5 10Z" fill="white"/>
<path id="Vector_4" d="M10 11.25C10.6904 11.25 11.25 10.6904 11.25 10C11.25 9.30963 10.6904 8.75 10 8.75C9.30963 8.75 8.75 9.30963 8.75 10C8.75 10.6904 9.30963 11.25 10 11.25Z" fill="white"/>
<path id="Vector_5" d="M15 10C15 10.6904 14.4404 11.25 13.75 11.25C13.0596 11.25 12.5 10.6904 12.5 10C12.5 9.30963 13.0596 8.75 13.75 8.75C14.4404 8.75 15 9.30963 15 10Z" fill="white"/>
<path id="Vector_6" d="M14.7931 13.5896C15.0497 13.3586 15.0705 12.9635 14.8396 12.7069C14.6086 12.4503 14.2135 12.4296 13.9569 12.6604L12.2917 14.1591L11.6681 13.5979C11.4116 13.3671 11.0164 13.3878 10.7854 13.6444C10.5546 13.901 10.5753 14.2961 10.8319 14.5271L11.8736 15.4646C12.1113 15.6785 12.4721 15.6785 12.7098 15.4646L14.7931 13.5896Z" fill="white"/>
</g>
</g>
<defs>
<clipPath id="clip0_1628_14326">
<rect width="20" height="20" fill="white"/>
</clipPath>
</defs>
</svg>
