<svg width="20" height="20" viewBox="0 0 20 20" fill="none" xmlns="http://www.w3.org/2000/svg">
<g id="011-server" clip-path="url(#clip0_1628_14399)">
<g id="Group">
<g id="Group_2">
<path id="Vector" d="M20 1.75781C20 0.788555 19.2114 0 18.2422 0H1.75781C0.788555 0 0 0.788555 0 1.75781V4.10156C0 4.55109 0.169805 4.9616 0.448398 5.27273C0.158633 5.59555 0 6.0082 0 6.44531V8.78906C0 9.22586 0.158437 9.63824 0.447812 9.96094C0.158437 10.2836 0 10.696 0 11.1328V13.4766C0 14.4481 0.786211 15.2344 1.75781 15.2344H9.41406V16.5852C8.91547 16.762 8.5198 17.1577 8.34297 17.6562H2.96875C2.64516 17.6562 2.38281 17.9186 2.38281 18.2422C2.38281 18.5658 2.64516 18.8281 2.96875 18.8281H8.34297C8.58484 19.5101 9.23613 20 10 20C10.7639 20 11.4152 19.5101 11.657 18.8281H17.0312C17.3548 18.8281 17.6172 18.5658 17.6172 18.2422C17.6172 17.9186 17.3548 17.6562 17.0312 17.6562H11.657C11.4802 17.1577 11.0845 16.762 10.5859 16.5852V15.2344H18.2422C19.2138 15.2344 20 14.4481 20 13.4766V11.1328C20 10.696 19.8416 10.2836 19.5521 9.96094C19.8416 9.63824 20 9.22586 20 8.78906V6.44531C20 6.0082 19.8414 5.59559 19.5516 5.27273C19.8302 4.9616 20 4.55109 20 4.10156V1.75781ZM10 18.8281C9.67691 18.8281 9.41406 18.5653 9.41406 18.2422C9.41406 17.9191 9.67691 17.6562 10 17.6562C10.3231 17.6562 10.5859 17.9191 10.5859 18.2422C10.5859 18.5653 10.3231 18.8281 10 18.8281ZM18.8281 13.4766C18.8281 13.8004 18.5661 14.0625 18.2422 14.0625H1.75781C1.43395 14.0625 1.17188 13.8005 1.17188 13.4766V11.1328C1.17188 10.8089 1.43391 10.5469 1.75781 10.5469H18.2422C18.5661 10.5469 18.8281 10.809 18.8281 11.1328V13.4766ZM18.8281 8.78906C18.8281 9.11289 18.5661 9.375 18.2422 9.375H1.75781C1.43398 9.375 1.17188 9.11297 1.17188 8.78906V6.44531C1.17188 6.12145 1.43391 5.85938 1.75781 5.85938H18.2422C18.5661 5.85938 18.8281 6.12152 18.8281 6.44531V8.78906ZM18.8281 4.10156C18.8281 4.42465 18.5653 4.6875 18.2422 4.6875H1.75781C1.43473 4.6875 1.17188 4.42465 1.17188 4.10156V1.75781C1.17188 1.43473 1.43473 1.17188 1.75781 1.17188H18.2422C18.5653 1.17188 18.8281 1.43473 18.8281 1.75781V4.10156Z" fill="white"/>
</g>
</g>
<g id="Group_3">
<g id="Group_4">
<path id="Vector_2" d="M7.61719 2.34375H2.92969C2.60609 2.34375 2.34375 2.60609 2.34375 2.92969C2.34375 3.25328 2.60609 3.51562 2.92969 3.51562H7.61719C7.94078 3.51562 8.20312 3.25328 8.20312 2.92969C8.20312 2.60609 7.94078 2.34375 7.61719 2.34375Z" fill="white"/>
</g>
</g>
<g id="Group_5">
<g id="Group_6">
<path id="Vector_3" d="M7.61719 7.03125H2.92969C2.60609 7.03125 2.34375 7.29359 2.34375 7.61719C2.34375 7.94078 2.60609 8.20312 2.92969 8.20312H7.61719C7.94078 8.20312 8.20312 7.94078 8.20312 7.61719C8.20312 7.29359 7.94078 7.03125 7.61719 7.03125Z" fill="white"/>
</g>
</g>
<g id="Group_7">
<g id="Group_8">
<path id="Vector_4" d="M7.61719 11.7188H2.92969C2.60609 11.7188 2.34375 11.9811 2.34375 12.3047C2.34375 12.6283 2.60609 12.8906 2.92969 12.8906H7.61719C7.94078 12.8906 8.20312 12.6283 8.20312 12.3047C8.20312 11.9811 7.94078 11.7188 7.61719 11.7188Z" fill="white"/>
</g>
</g>
<g id="Group_9">
<g id="Group_10">
<path id="Vector_5" d="M17.0703 3.51562C17.3939 3.51562 17.6562 3.25329 17.6562 2.92969C17.6562 2.60608 17.3939 2.34375 17.0703 2.34375C16.7467 2.34375 16.4844 2.60608 16.4844 2.92969C16.4844 3.25329 16.7467 3.51562 17.0703 3.51562Z" fill="white"/>
</g>
</g>
<g id="Group_11">
<g id="Group_12">
<path id="Vector_6" d="M14.7266 3.51562C15.0502 3.51562 15.3125 3.25329 15.3125 2.92969C15.3125 2.60608 15.0502 2.34375 14.7266 2.34375C14.403 2.34375 14.1406 2.60608 14.1406 2.92969C14.1406 3.25329 14.403 3.51562 14.7266 3.51562Z" fill="white"/>
</g>
</g>
<g id="Group_13">
<g id="Group_14">
<path id="Vector_7" d="M17.0703 8.20312C17.3939 8.20312 17.6562 7.94079 17.6562 7.61719C17.6562 7.29358 17.3939 7.03125 17.0703 7.03125C16.7467 7.03125 16.4844 7.29358 16.4844 7.61719C16.4844 7.94079 16.7467 8.20312 17.0703 8.20312Z" fill="white"/>
</g>
</g>
<g id="Group_15">
<g id="Group_16">
<path id="Vector_8" d="M14.7266 8.20312C15.0502 8.20312 15.3125 7.94079 15.3125 7.61719C15.3125 7.29358 15.0502 7.03125 14.7266 7.03125C14.403 7.03125 14.1406 7.29358 14.1406 7.61719C14.1406 7.94079 14.403 8.20312 14.7266 8.20312Z" fill="white"/>
</g>
</g>
<g id="Group_17">
<g id="Group_18">
<path id="Vector_9" d="M17.0703 12.8906C17.3939 12.8906 17.6562 12.6283 17.6562 12.3047C17.6562 11.9811 17.3939 11.7188 17.0703 11.7188C16.7467 11.7188 16.4844 11.9811 16.4844 12.3047C16.4844 12.6283 16.7467 12.8906 17.0703 12.8906Z" fill="white"/>
</g>
</g>
<g id="Group_19">
<g id="Group_20">
<path id="Vector_10" d="M14.7266 12.8906C15.0502 12.8906 15.3125 12.6283 15.3125 12.3047C15.3125 11.9811 15.0502 11.7188 14.7266 11.7188C14.403 11.7188 14.1406 11.9811 14.1406 12.3047C14.1406 12.6283 14.403 12.8906 14.7266 12.8906Z" fill="white"/>
</g>
</g>
<g id="Group_21">
<g id="Group_22">
<path id="Vector_11" d="M12.3828 3.51562C12.7064 3.51562 12.9688 3.25329 12.9688 2.92969C12.9688 2.60608 12.7064 2.34375 12.3828 2.34375C12.0592 2.34375 11.7969 2.60608 11.7969 2.92969C11.7969 3.25329 12.0592 3.51562 12.3828 3.51562Z" fill="white"/>
</g>
</g>
<g id="Group_23">
<g id="Group_24">
<path id="Vector_12" d="M12.3828 8.20312C12.7064 8.20312 12.9688 7.94079 12.9688 7.61719C12.9688 7.29358 12.7064 7.03125 12.3828 7.03125C12.0592 7.03125 11.7969 7.29358 11.7969 7.61719C11.7969 7.94079 12.0592 8.20312 12.3828 8.20312Z" fill="white"/>
</g>
</g>
<g id="Group_25">
<g id="Group_26">
<path id="Vector_13" d="M12.3828 12.8906C12.7064 12.8906 12.9688 12.6283 12.9688 12.3047C12.9688 11.9811 12.7064 11.7188 12.3828 11.7188C12.0592 11.7188 11.7969 11.9811 11.7969 12.3047C11.7969 12.6283 12.0592 12.8906 12.3828 12.8906Z" fill="white"/>
</g>
</g>
</g>
<defs>
<clipPath id="clip0_1628_14399">
<rect width="20" height="20" fill="white"/>
</clipPath>
</defs>
</svg>
