<svg width="20" height="20" viewBox="0 0 20 20" fill="none" xmlns="http://www.w3.org/2000/svg">
<g id="007-sms">
<g id="Group">
<g id="Group_2">
<path id="Vector" d="M16.7389 18.7245L11.5045 14.4295H4.3042C1.93114 14.4295 0 12.4562 0 10.0313V5.67457C0 3.24967 1.93114 1.27637 4.3042 1.27637H15.6958C18.0689 1.27637 20 3.24967 20 5.67457V10.0313C20 12.0717 18.6322 13.8148 16.7389 14.297V18.7245ZM4.3042 2.52641C2.62024 2.52641 1.25 3.93878 1.25 5.67461V10.0313C1.25 11.7671 2.62024 13.1795 4.3042 13.1795H11.9513L15.4889 16.0817V13.2228L16.0407 13.1575C17.5855 12.9756 18.75 11.6316 18.75 10.0313V5.67457C18.75 3.93873 17.3798 2.52637 15.6958 2.52637H4.3042V2.52641Z" fill="white"/>
</g>
<g id="Group_3">
<path id="Vector_2" d="M3.56638 8.59323C3.78915 8.72874 4.25119 8.88804 4.60948 8.88804C4.97568 8.88804 5.12707 8.76049 5.12707 8.56151C5.12707 8.36192 5.00744 8.26669 4.55397 8.11535C3.74952 7.84437 3.43887 7.40673 3.44679 6.94469C3.44679 6.2202 4.06813 5.6709 5.03128 5.6709C5.48536 5.6709 5.89189 5.77404 6.1305 5.89367L5.91564 6.72984C5.74046 6.634 5.40601 6.50645 5.07152 6.50645C4.77671 6.50645 4.60948 6.62608 4.60948 6.82506C4.60948 7.00816 4.76083 7.104 5.23875 7.27122C5.97911 7.52576 6.28977 7.90049 6.29773 8.47363C6.29773 9.19812 5.72458 9.73155 4.60948 9.73155C4.09985 9.73155 3.64573 9.62045 3.35156 9.46118L3.56638 8.59323Z" fill="white"/>
<path id="Vector_3" d="M7.03176 7.00025C7.03176 6.51502 7.01588 6.10057 7 5.75816H8.01931L8.07486 6.28367H8.09865C8.26588 6.0371 8.60829 5.6709 9.27722 5.6709C9.77894 5.6709 10.1769 5.92543 10.3441 6.33131H10.36C10.5034 6.13233 10.6786 5.97302 10.8617 5.86196C11.0772 5.73441 11.3158 5.67094 11.6027 5.67094C12.351 5.67094 12.9168 6.19645 12.9168 7.35857V9.65229H11.7382V7.53429C11.7382 6.96849 11.5545 6.64196 11.1645 6.64196C10.8862 6.64196 10.6866 6.83298 10.6072 7.06433C10.5755 7.15159 10.5596 7.27918 10.5596 7.37498V9.6522H9.38106V7.4702C9.38106 6.97641 9.20588 6.64196 8.82318 6.64196C8.51314 6.64196 8.32939 6.88122 8.258 7.0802C8.21833 7.17543 8.21041 7.2871 8.21041 7.38294V9.65225H7.03184V7.00025H7.03176Z" fill="white"/>
<path id="Vector_4" d="M13.8711 8.59323C14.0939 8.72874 14.5559 8.88804 14.9142 8.88804C15.2804 8.88804 15.4318 8.76049 15.4318 8.56151C15.4318 8.36192 15.3122 8.26669 14.8587 8.11535C14.0542 7.84437 13.7436 7.40673 13.7515 6.94469C13.7515 6.2202 14.3728 5.6709 15.336 5.6709C15.79 5.6709 16.196 5.77404 16.4352 5.89367L16.2203 6.72984C16.0451 6.634 15.7107 6.50645 15.3762 6.50645C15.0814 6.50645 14.9142 6.62608 14.9142 6.82506C14.9142 7.00816 15.0655 7.104 15.5434 7.27122C16.2838 7.52576 16.5945 7.90049 16.6024 8.47363C16.6024 9.19812 16.0293 9.73155 14.9142 9.73155C14.4045 9.73155 13.9504 9.62045 13.6562 9.46118L13.8711 8.59323Z" fill="white"/>
</g>
</g>
</g>
</svg>
