<svg width="20" height="20" viewBox="0 0 20 20" fill="none" xmlns="http://www.w3.org/2000/svg">
<g id="001-layout" clip-path="url(#clip0_1628_14542)">
<g id="Group">
<g id="Group_2">
<path id="Vector" d="M7.03125 12.1875H2.34375C1.05141 12.1875 0 13.2389 0 14.5312V17.6562C0 18.9486 1.05141 20 2.34375 20H7.03125C8.32359 20 9.375 18.9486 9.375 17.6562V14.5312C9.375 13.2389 8.32359 12.1875 7.03125 12.1875ZM7.8125 17.6562C7.8125 18.087 7.46203 18.4375 7.03125 18.4375H2.34375C1.91297 18.4375 1.5625 18.087 1.5625 17.6562V14.5312C1.5625 14.1005 1.91297 13.75 2.34375 13.75H7.03125C7.46203 13.75 7.8125 14.1005 7.8125 14.5312V17.6562ZM17.6562 0H12.9688C11.6764 0 10.625 1.05141 10.625 2.34375V5.46875C10.625 6.76109 11.6764 7.8125 12.9688 7.8125H17.6562C18.9486 7.8125 20 6.76109 20 5.46875V2.34375C20 1.05141 18.9486 0 17.6562 0ZM18.4375 5.46875C18.4375 5.89953 18.087 6.25 17.6562 6.25H12.9688C12.538 6.25 12.1875 5.89953 12.1875 5.46875V2.34375C12.1875 1.91297 12.538 1.5625 12.9688 1.5625H17.6562C18.087 1.5625 18.4375 1.91297 18.4375 2.34375V5.46875ZM17.6562 9.0625H12.9688C11.6764 9.0625 10.625 10.1139 10.625 11.4062V17.6562C10.625 18.9486 11.6764 20 12.9688 20H17.6562C18.9486 20 20 18.9486 20 17.6562V11.4062C20 10.1139 18.9486 9.0625 17.6562 9.0625ZM18.4375 17.6562C18.4375 18.087 18.087 18.4375 17.6562 18.4375H12.9688C12.538 18.4375 12.1875 18.087 12.1875 17.6562V11.4062C12.1875 10.9755 12.538 10.625 12.9688 10.625H17.6562C18.087 10.625 18.4375 10.9755 18.4375 11.4062V17.6562ZM7.03125 0H2.34375C1.05141 0 0 1.05141 0 2.34375V8.59375C0 9.88609 1.05141 10.9375 2.34375 10.9375H7.03125C8.32359 10.9375 9.375 9.88609 9.375 8.59375V2.34375C9.375 1.05141 8.32359 0 7.03125 0ZM7.8125 8.59375C7.8125 9.02453 7.46203 9.375 7.03125 9.375H2.34375C1.91297 9.375 1.5625 9.02453 1.5625 8.59375V2.34375C1.5625 1.91297 1.91297 1.5625 2.34375 1.5625H7.03125C7.46203 1.5625 7.8125 1.91297 7.8125 2.34375V8.59375Z" fill="white"/>
</g>
</g>
</g>
<defs>
<clipPath id="clip0_1628_14542">
<rect width="20" height="20" fill="white"/>
</clipPath>
</defs>
</svg>
