<svg width="20" height="20" viewBox="0 0 20 20" fill="none" xmlns="http://www.w3.org/2000/svg">
<g id="010-bank" clip-path="url(#clip0_1628_14125)">
<g id="Group">
<path id="Vector" d="M18.2422 8.24217C18.3976 8.24217 18.5466 8.18041 18.6565 8.07053C18.794 7.93303 20 6.68736 20 5.31248C20 5.09221 19.8746 4.88842 19.677 4.78885L10.2629 0.0622852C10.0975 -0.0207617 9.90246 -0.0207617 9.73707 0.0622852L0.323008 4.78885C0.129375 4.88643 0 5.08861 0 5.31248C0 6.68709 1.20543 7.93248 1.3434 8.07045C1.45637 8.1835 1.61098 8.24217 1.75781 8.24217H2.34375V16.4844H1.75781C1.60238 16.4844 1.45336 16.5461 1.34352 16.656C1.20598 16.7935 0 18.0392 0 19.414C0 19.7376 0.262344 20 0.585938 20H19.4141C19.7377 20 20 19.7376 20 19.414C20 18.0392 18.794 16.7935 18.6565 16.656C18.5466 16.5461 18.3976 16.4844 18.2422 16.4844H17.6562V8.24217H18.2422ZM10 1.24158L16.9411 4.72654H3.05887L10 1.24158ZM17.9847 17.6562C18.2148 17.9247 18.5371 18.3673 18.709 18.8281H1.29094C1.46297 18.3671 1.78551 17.9242 2.01527 17.6562H17.9847ZM3.51562 16.4844V8.24217H4.6875V16.4844H3.51562ZM5.85938 16.4844V8.24217H8.24219V16.4844H5.85938ZM9.41406 16.4844V8.24217H10.5859V16.4844H9.41406ZM11.7578 16.4844V8.24217H14.1406V16.4844H11.7578ZM15.3125 16.4844V8.24217H16.4844V16.4844H15.3125ZM2.01535 7.07029C1.78527 6.80189 1.46301 6.3592 1.29105 5.89803H18.7088C18.5368 6.35943 18.2145 6.80229 17.9847 7.07029H2.01535Z" fill="white"/>
</g>
</g>
<defs>
<clipPath id="clip0_1628_14125">
<rect width="20" height="20" fill="white"/>
</clipPath>
</defs>
</svg>
